<svg width="75" height="75" fill="currentColor" xmlns="http://www.w3.org/2000/svg"><path d="M15.441 1.47a.735.735 0 1 0 0-1.47.735.735 0 0 0 0 1.47ZM22.794 1.47a.735.735 0 1 0 0-1.47.735.735 0 0 0 0 1.47ZM30.882.735a.735.735 0 1 1-1.47 0 .735.735 0 0 1 1.47 0ZM37.5 1.47a.735.735 0 1 0 0-1.47.735.735 0 0 0 0 1.47ZM45.588.735a.735.735 0 1 1-1.47 0 .735.735 0 0 1 1.47 0ZM52.206 1.47a.735.735 0 1 0 0-1.47.735.735 0 0 0 0 1.47ZM60.294.735a.735.735 0 1 1-1.47 0 .735.735 0 0 1 1.47 0ZM66.912 0h6.985c.07 0 .137.006.203.019a.735.735 0 0 1 .882.882c.012.065.018.133.018.202v6.985a.735.735 0 0 1-1.47 0V1.471h-6.618a.736.736 0 0 1 0-1.471ZM8.088 8.824a.735.735 0 1 0 0-1.471.735.735 0 0 0 0 1.47ZM16.177 8.088a.735.735 0 1 1-1.471 0 .735.735 0 0 1 1.47 0ZM22.794 8.824a.735.735 0 1 0 0-1.471.735.735 0 0 0 0 1.47ZM30.882 8.088a.735.735 0 1 1-1.47 0 .735.735 0 0 1 1.47 0ZM37.5 8.824a.735.735 0 1 0 0-1.471.735.735 0 0 0 0 1.47ZM45.588 8.088a.735.735 0 1 1-1.47 0 .735.735 0 0 1 1.47 0ZM52.206 8.824a.735.735 0 1 0 0-1.471.735.735 0 0 0 0 1.47ZM60.294 8.088a.735.735 0 1 1-1.47 0 .735.735 0 0 1 1.47 0ZM66.912 8.824a.735.735 0 1 0 0-1.471.735.735 0 0 0 0 1.47ZM.735 16.177a.735.735 0 1 0 0-1.471.735.735 0 0 0 0 1.47ZM8.824 15.441a.735.735 0 1 1-1.471 0 .735.735 0 0 1 1.47 0ZM15.441 16.177a.735.735 0 1 0 0-1.471.735.735 0 0 0 0 1.47ZM23.53 15.441a.735.735 0 1 1-1.471 0 .735.735 0 0 1 1.47 0ZM30.147 16.177a.735.735 0 1 0 0-1.471.735.735 0 0 0 0 1.47ZM38.235 15.441a.735.735 0 1 1-1.47 0 .735.735 0 0 1 1.47 0ZM44.853 16.177a.735.735 0 1 0 0-1.471.735.735 0 0 0 0 1.47ZM52.941 15.441a.735.735 0 1 1-1.47 0 .735.735 0 0 1 1.47 0ZM59.559 16.177a.735.735 0 1 0 0-1.471.735.735 0 0 0 0 1.47ZM67.647 15.441a.735.735 0 1 1-1.47 0 .735.735 0 0 1 1.47 0ZM74.265 16.177a.735.735 0 1 0 0-1.471.735.735 0 0 0 0 1.47ZM1.47 22.794a.735.735 0 1 1-1.47 0 .735.735 0 0 1 1.47 0ZM8.088 23.53a.735.735 0 1 0 0-1.471.735.735 0 0 0 0 1.47ZM16.177 22.794a.735.735 0 1 1-1.471 0 .735.735 0 0 1 1.47 0ZM22.794 23.53a.735.735 0 1 0 0-1.471.735.735 0 0 0 0 1.47ZM30.882 22.794a.735.735 0 1 1-1.47 0 .735.735 0 0 1 1.47 0ZM37.5 23.53a.735.735 0 1 0 0-1.471.735.735 0 0 0 0 1.47ZM45.588 22.794a.735.735 0 1 1-1.47 0 .735.735 0 0 1 1.47 0ZM52.206 23.53a.735.735 0 1 0 0-1.471.735.735 0 0 0 0 1.47ZM60.294 22.794a.735.735 0 1 1-1.47 0 .735.735 0 0 1 1.47 0ZM66.912 23.53a.735.735 0 1 0 0-1.471.735.735 0 0 0 0 1.47ZM75 22.794a.735.735 0 1 1-1.47 0 .735.735 0 0 1 1.47 0ZM.735 30.882a.735.735 0 1 0 0-1.47.735.735 0 0 0 0 1.47ZM8.824 30.147a.735.735 0 1 1-1.471 0 .735.735 0 0 1 1.47 0ZM15.441 30.882a.735.735 0 1 0 0-1.47.735.735 0 0 0 0 1.47ZM23.53 30.147a.735.735 0 1 1-1.471 0 .735.735 0 0 1 1.47 0ZM30.147 30.882a.735.735 0 1 0 0-1.47.735.735 0 0 0 0 1.47ZM38.235 30.147a.735.735 0 1 1-1.47 0 .735.735 0 0 1 1.47 0ZM44.853 30.882a.735.735 0 1 0 0-1.47.735.735 0 0 0 0 1.47ZM52.941 30.147a.735.735 0 1 1-1.47 0 .735.735 0 0 1 1.47 0ZM59.559 30.882a.735.735 0 1 0 0-1.47.735.735 0 0 0 0 1.47ZM67.647 30.147a.735.735 0 1 1-1.47 0 .735.735 0 0 1 1.47 0ZM74.265 30.882a.735.735 0 1 0 0-1.47.735.735 0 0 0 0 1.47ZM1.47 37.5a.735.735 0 1 1-1.47 0 .735.735 0 0 1 1.47 0ZM8.088 38.235a.735.735 0 1 0 0-1.47.735.735 0 0 0 0 1.47ZM16.177 37.5a.735.735 0 1 1-1.471 0 .735.735 0 0 1 1.47 0ZM22.794 38.235a.735.735 0 1 0 0-1.47.735.735 0 0 0 0 1.47ZM30.882 37.5a.735.735 0 1 1-1.47 0 .735.735 0 0 1 1.47 0ZM37.5 38.235a.735.735 0 1 0 0-1.47.735.735 0 0 0 0 1.47ZM45.588 37.5a.735.735 0 1 1-1.47 0 .735.735 0 0 1 1.47 0ZM52.206 38.235a.735.735 0 1 0 0-1.47.735.735 0 0 0 0 1.47ZM60.294 37.5a.735.735 0 1 1-1.47 0 .735.735 0 0 1 1.47 0ZM66.912 38.235a.735.735 0 1 0 0-1.47.735.735 0 0 0 0 1.47ZM75 37.5a.735.735 0 1 1-1.47 0 .735.735 0 0 1 1.47 0ZM.735 45.588a.735.735 0 1 0 0-1.47.735.735 0 0 0 0 1.47ZM8.824 44.853a.735.735 0 1 1-1.471 0 .735.735 0 0 1 1.47 0ZM15.441 45.588a.735.735 0 1 0 0-1.47.735.735 0 0 0 0 1.47ZM23.53 44.853a.735.735 0 1 1-1.471 0 .735.735 0 0 1 1.47 0ZM30.147 45.588a.735.735 0 1 0 0-1.47.735.735 0 0 0 0 1.47ZM38.235 44.853a.735.735 0 1 1-1.47 0 .735.735 0 0 1 1.47 0ZM44.853 45.588a.735.735 0 1 0 0-1.47.735.735 0 0 0 0 1.47ZM52.941 44.853a.735.735 0 1 1-1.47 0 .735.735 0 0 1 1.47 0ZM59.559 45.588a.735.735 0 1 0 0-1.47.735.735 0 0 0 0 1.47ZM67.647 44.853a.735.735 0 1 1-1.47 0 .735.735 0 0 1 1.47 0ZM74.265 45.588a.735.735 0 1 0 0-1.47.735.735 0 0 0 0 1.47ZM1.47 52.206a.735.735 0 1 1-1.47 0 .735.735 0 0 1 1.47 0ZM8.088 52.941a.735.735 0 1 0 0-1.47.735.735 0 0 0 0 1.47ZM16.177 52.206a.735.735 0 1 1-1.471 0 .735.735 0 0 1 1.47 0ZM22.794 52.941a.735.735 0 1 0 0-1.47.735.735 0 0 0 0 1.47ZM30.882 52.206a.735.735 0 1 1-1.47 0 .735.735 0 0 1 1.47 0ZM37.5 52.941a.735.735 0 1 0 0-1.47.735.735 0 0 0 0 1.47ZM45.588 52.206a.735.735 0 1 1-1.47 0 .735.735 0 0 1 1.47 0ZM52.206 52.941a.735.735 0 1 0 0-1.47.735.735 0 0 0 0 1.47ZM60.294 52.206a.735.735 0 1 1-1.47 0 .735.735 0 0 1 1.47 0ZM66.912 52.941a.735.735 0 1 0 0-1.47.735.735 0 0 0 0 1.47ZM75 52.206a.735.735 0 1 1-1.47 0 .735.735 0 0 1 1.47 0ZM.735 60.294a.735.735 0 1 0 0-1.47.735.735 0 0 0 0 1.47ZM8.824 59.559a.735.735 0 1 1-1.471 0 .735.735 0 0 1 1.47 0ZM15.441 60.294a.735.735 0 1 0 0-1.47.735.735 0 0 0 0 1.47ZM23.53 59.559a.735.735 0 1 1-1.471 0 .735.735 0 0 1 1.47 0ZM30.147 60.294a.735.735 0 1 0 0-1.47.735.735 0 0 0 0 1.47ZM38.235 59.559a.735.735 0 1 1-1.47 0 .735.735 0 0 1 1.47 0ZM44.853 60.294a.735.735 0 1 0 0-1.47.735.735 0 0 0 0 1.47ZM52.941 59.559a.735.735 0 1 1-1.47 0 .735.735 0 0 1 1.47 0ZM59.559 60.294a.735.735 0 1 0 0-1.47.735.735 0 0 0 0 1.47ZM67.647 59.559a.735.735 0 1 1-1.47 0 .735.735 0 0 1 1.47 0ZM74.265 60.294a.735.735 0 1 0 0-1.47.735.735 0 0 0 0 1.47ZM1.47 73.53v-6.618a.735.735 0 1 0-1.47 0v6.985c0 .07.006.137.019.203a.735.735 0 0 0 .882.882c.065.012.133.018.202.018h6.985a.735.735 0 0 0 0-1.47H1.471ZM8.088 67.647a.735.735 0 1 0 0-1.47.735.735 0 0 0 0 1.47ZM16.177 66.912a.735.735 0 1 1-1.471 0 .735.735 0 0 1 1.47 0ZM22.794 67.647a.735.735 0 1 0 0-1.47.735.735 0 0 0 0 1.47ZM30.882 66.912a.735.735 0 1 1-1.47 0 .735.735 0 0 1 1.47 0ZM37.5 67.647a.735.735 0 1 0 0-1.47.735.735 0 0 0 0 1.47ZM45.588 66.912a.735.735 0 1 1-1.47 0 .735.735 0 0 1 1.47 0ZM52.206 67.647a.735.735 0 1 0 0-1.47.735.735 0 0 0 0 1.47ZM60.294 66.912a.735.735 0 1 1-1.47 0 .735.735 0 0 1 1.47 0ZM66.912 67.647a.735.735 0 1 0 0-1.47.735.735 0 0 0 0 1.47ZM73.53 66.912a.735.735 0 1 1 1.47 0v6.985c0 .07-.006.137-.019.203a.736.736 0 0 1-.881.881 1.109 1.109 0 0 1-.203.019h-6.985a.735.735 0 1 1 0-1.47h6.617v-6.618ZM15.441 75a.735.735 0 1 0 0-1.47.735.735 0 0 0 0 1.47ZM23.53 74.265a.735.735 0 1 1-1.471 0 .735.735 0 0 1 1.47 0ZM30.147 75a.735.735 0 1 0 0-1.47.735.735 0 0 0 0 1.47ZM38.235 74.265a.735.735 0 1 1-1.47 0 .735.735 0 0 1 1.47 0ZM44.853 75a.735.735 0 1 0 0-1.47.735.735 0 0 0 0 1.47ZM52.941 74.265a.735.735 0 1 1-1.47 0 .735.735 0 0 1 1.47 0ZM59.559 75a.735.735 0 1 0 0-1.47.735.735 0 0 0 0 1.47ZM1.47 1.47h6.618a.735.735 0 0 0 0-1.47H1.103C.493 0 0 .494 0 1.103v6.985a.735.735 0 0 0 1.47 0V1.471Z" fill="#000"/></svg>