<svg width="100" height="100" viewBox="0 0 100 100" fill="none" xmlns="http://www.w3.org/2000/svg">
<path d="M51.3656 44.3453L51.3655 44.3452L50.6221 42.9281L50.6221 42.928C47.8606 37.6651 45.7971 33.7322 44.4329 30.9888C43.7501 29.6156 43.251 28.5575 42.929 27.7878C42.7677 27.402 42.6581 27.1058 42.5923 26.8883C42.5359 26.702 42.529 26.6275 42.5272 26.6266C42.5827 25.9311 42.6831 25.6129 42.8209 25.3974C42.9586 25.1818 43.2053 24.957 43.8133 24.6145C43.8148 24.6158 43.885 24.5908 44.0776 24.5637C44.302 24.5321 44.6161 24.5071 45.0329 24.4915C45.8646 24.4604 47.0314 24.4688 48.5604 24.5117C51.615 24.5973 56.0388 24.8178 61.9589 25.113C62.9963 25.1647 63.3421 25.1896 63.641 25.2871C64.0223 25.4115 64.3693 25.6233 64.6542 25.9056C64.8775 26.1269 65.0578 26.4233 65.5778 27.3222L71.872 38.2024C73.2867 40.648 74.2925 42.3914 74.828 43.7427C75.3619 45.0898 75.3191 45.781 75.0152 46.2869C74.7113 46.7927 74.1211 47.155 72.681 47.3161C71.2365 47.4776 69.225 47.4082 66.4015 47.3073L55.4537 46.916C54.1246 46.8685 53.6828 46.8404 53.3102 46.6949C53.0066 46.5763 52.7287 46.4014 52.4904 46.1789C52.1981 45.906 51.9821 45.5207 51.3656 44.3453ZM50 95.9235C75.3629 95.9235 95.9235 75.3629 95.9235 50C95.9235 24.6371 75.3629 4.07648 50 4.07648C24.6371 4.07648 4.07648 24.6371 4.07648 50C4.07648 75.3629 24.6371 95.9235 50 95.9235ZM22.0983 51.3382C21.678 50.5536 21.693 49.6075 22.138 48.8367L32.2723 31.2836C33.2751 29.5468 35.7912 29.574 36.7562 31.332L46.1633 48.4709C46.596 49.2593 46.5857 50.2165 46.136 50.9954L35.885 68.7506C34.8764 70.4976 32.3413 70.4573 31.3887 68.6792L22.0983 51.3382ZM53.0631 53.8287C53.3303 53.6827 53.6546 53.5954 54.2008 53.5651C54.7681 53.5337 55.4898 53.5663 56.544 53.6155L67.5601 54.13C70.1573 54.2513 71.9993 54.3398 73.3168 54.5989C74.6221 54.8555 75.1603 55.2335 75.4339 55.734C75.7075 56.2345 75.7351 56.8916 75.2465 58.1288C74.7532 59.3777 73.8333 60.976 72.5333 63.2277L66.1105 74.3521C65.5829 75.2661 65.2206 75.8913 64.8879 76.3519C64.5676 76.7953 64.319 77.0212 64.0518 77.1672C63.7846 77.3133 63.4603 77.4006 62.9141 77.4308C62.3468 77.4622 61.625 77.4296 60.5708 77.3803L49.555 76.8653C46.9579 76.7439 45.116 76.6554 43.7985 76.3963C42.4933 76.1397 41.9551 75.7616 41.6815 75.2611C41.408 74.7607 41.3803 74.1036 41.869 72.8664C42.3622 71.6175 43.2821 70.0193 44.582 67.7677L51.0045 56.6436C51.5322 55.7297 51.8944 55.1046 52.2271 54.6441C52.5474 54.2006 52.796 53.9748 53.0631 53.8287Z" fill="#00FFFF" stroke="#181A1C" stroke-width="1.84704" stroke-linejoin="round"/>
</svg>
