<svg class="icon" width="21" height="23" fill="none" xmlns="http://www.w3.org/2000/svg"><path d="M1.997 6.944h5.724L9.266 8.22c.654.54 1.6.54 2.253 0l1.546-1.276h5.726c1.256 1.464 1.997 3.37 1.997 5.662 0 5.74-4.653 10.394-10.394 10.394C4.654 23 0 18.346 0 12.606c0-2.291.741-4.198 1.997-5.662Z" fill="currentColor"/>
            <path fill-rule="evenodd" clip-rule="evenodd" d="m4.782 2.796 1.313 1.085-4.41.86a.442.442 0 0 0 .084.876h6.429l1.913 1.58c.164.135.4.135.563 0l1.914-1.58h6.428a.442.442 0 0 0 .085-.876l-4.41-.86 1.313-1.085a.442.442 0 0 0-.366-.775l-4.138.806V1.106a1.106 1.106 0 0 0-2.212 0v1.722l-4.14-.807a.442.442 0 0 0-.366.775Z" fill="currentColor"/>
        </svg>